<svg version="1.1" id="app-icon" xmlns="http://www.w3.org/2000/svg" xmlns:xlink="http://www.w3.org/1999/xlink" x="0px" y="0px" viewBox="0 0 48.1 48.2" style="enable-background:new 0 0 48.1 48.2;" xml:space="preserve">
    <style type="text/css">
        .st0 { fill: #df5a4c; }
    </style>

    <path style="fill: none;" d="M0,0h80v80H0V0z"/>
    <path class="st0" d="M34,10c1.7,0,3-1.3,3-3c0-2-3-5.4-3-5.4S31,5,31,7C31,8.7,32.3,10,34,10z M24,10c1.7,0,3-1.3,3-3c0-2-3-5.4-3-5.4S21,5,21,7
        C21,8.7,22.3,10,24,10z M14,10c1.7,0,3-1.3,3-3c0-2-3-5.4-3-5.4S11,5,11,7C11,8.7,12.3,10,14,10z M37.8,16c-0.4-1.2-1.5-2-2.8-2H13
        c-1.3,0-2.4,0.8-2.8,2L6,28v16c0,1.1,0.9,2,2,2h2c1.1,0,2-0.9,2-2v-2h24v2c0,1.1,0.9,2,2,2h2c1.1,0,2-0.9,2-2V28L37.8,16z M13,36
        c-1.7,0-3-1.3-3-3s1.3-3,3-3s3,1.3,3,3S14.7,36,13,36z M35,36c-1.7,0-3-1.3-3-3s1.3-3,3-3s3,1.3,3,3S36.7,36,35,36z M10,26l3-9h22
        l3,9H10z"/>
</svg>
